<svg xmlns="http://www.w3.org/2000/svg" viewBox="0 0 160 160">
  <defs>
    <style>
      .a, .b {
        fill: #FFFFFF;
      }

      .b {
        stroke: #B3B1A4;
        stroke-miterlimit: 10;
        stroke-width: 6px;
      }

      .c {
        fill: #FC735C;
      }
    </style>
  </defs>
  <title>item</title>
  <circle class="a" cx="80" cy="80" r="80"/>
  <path class="b" d="M38.88,138.81L8.3,85.86a12,12,0,0,1,0-12l30.57-53a12,12,0,0,1,10.39-6h61.14a12,12,0,0,1,10.39,6l30.57,53a12,12,0,0,1,0,12l-30.57,53a12,12,0,0,1-10.39,6H49.27A12,12,0,0,1,38.88,138.81Z" transform="translate(0 0)"/>
  <circle class="c" cx="79.84" cy="79.86" r="50"/>
</svg>
